<svg width="126" height="127" viewBox="0 0 126 127" fill="none" xmlns="http://www.w3.org/2000/svg">
<g filter="url(#filter0_d_312_4)">
<path d="M71.6719 44.8281C70.5 43.6562 69.1328 42.4844 67.7656 41.5078C66.3984 40.5312 64.8359 40.7266 63.6641 41.7031L59.5625 45.8047C58 47.5625 57.2188 49.7109 57.2188 51.6641C57.2188 52.8359 57.8047 53.6172 58.5859 54.2031C59.1719 54.5938 59.9531 55.1797 60.7344 55.7656C66.2031 61.4297 66.2031 70.2188 60.7344 75.6875L47.4531 88.7734C41.9844 94.4375 33 94.4375 27.5312 88.7734C22.0625 83.3047 22.2578 74.3203 27.7266 68.8516L30.2656 66.3125C31.2422 65.5312 31.4375 64.1641 31.0469 62.9922C29.875 59.6719 29.2891 56.1562 29.0938 52.8359C29.0938 50.1016 25.7734 48.7344 23.8203 50.6875L16.5938 57.9141C5.07031 69.4375 5.07031 88.3828 16.5938 99.9062C28.1172 111.43 47.0625 111.43 58.5859 99.9062L71.6719 86.8203C71.6719 86.8203 71.6719 86.8203 71.6719 86.625C83.1953 75.2969 83.3906 56.5469 71.6719 44.8281ZM99.2109 17.2891C87.6875 5.76562 68.7422 5.76562 57.2188 17.2891L44.1328 30.375C44.1328 30.375 44.1328 30.375 44.1328 30.5703C32.6094 41.8984 32.4141 60.6484 44.1328 72.3672C45.3047 73.5391 46.6719 74.7109 48.0391 75.6875C49.4062 76.6641 50.9688 76.4688 52.1406 75.4922L56.2422 71.3906C57.8047 69.6328 58.5859 67.4844 58.5859 65.5312C58.5859 64.3594 58 63.5781 57.2188 62.9922C56.6328 62.6016 55.8516 62.0156 55.0703 61.4297C49.6016 55.7656 49.6016 46.9766 55.0703 41.5078L68.3516 28.4219C73.8203 22.7578 82.8047 22.7578 88.2734 28.4219C93.7422 33.8906 93.5469 42.875 88.0781 48.3438L85.5391 50.8828C84.5625 51.6641 84.3672 53.0312 84.7578 54.2031C85.9297 57.5234 86.5156 61.0391 86.7109 64.3594C86.7109 67.0938 90.0312 68.4609 91.9844 66.5078L99.2109 59.2812C110.734 47.7578 110.734 28.8125 99.2109 17.2891Z" fill="white"/>
</g>
<defs>
<filter id="filter0_d_312_4" x="0.0703125" y="0.765625" width="125.664" height="125.664" filterUnits="userSpaceOnUse" color-interpolation-filters="sRGB">
<feFlood flood-opacity="0" result="BackgroundImageFix"/>
<feColorMatrix in="SourceAlpha" type="matrix" values="0 0 0 0 0 0 0 0 0 0 0 0 0 0 0 0 0 0 127 0" result="hardAlpha"/>
<feOffset dx="5" dy="5"/>
<feGaussianBlur stdDeviation="5"/>
<feComposite in2="hardAlpha" operator="out"/>
<feColorMatrix type="matrix" values="0 0 0 0 0 0 0 0 0 0 0 0 0 0 0 0 0 0 0.5 0"/>
<feBlend mode="normal" in2="BackgroundImageFix" result="effect1_dropShadow_312_4"/>
<feBlend mode="normal" in="SourceGraphic" in2="effect1_dropShadow_312_4" result="shape"/>
</filter>
</defs>
</svg>
